<?xml version="1.0" encoding="utf-8"?>
<!-- Generator: Adobe Illustrator 23.0.1, SVG Export Plug-In . SVG Version: 6.00 Build 0)  -->
<svg version="1.1" id="Layer_1" xmlns="http://www.w3.org/2000/svg" xmlns:xlink="http://www.w3.org/1999/xlink" x="0px" y="0px"
	 viewBox="0 0 50 50" style="enable-background:new 0 0 50 50;" xml:space="preserve">
<style type="text/css">
	.st0{fill:#CCCCCC;}
	.st1{fill:#4485E2;}
	.st2{fill:#FFFFFF;}
</style>
<g>
	<g>
		<rect x="4.3" y="4.3" class="st0" width="41.5" height="41.5"/>
		<path class="st1" d="M45.6,4.4v41.2H4.4V4.4H45.6 M45.9,4.1H4.1v41.7h41.7V4.1L45.9,4.1z"/>
	</g>
	<g>
		<rect x="2.5" y="2.5" class="st2" width="3.3" height="3.3"/>
		<path class="st1" d="M5.7,2.6v3.1H2.6V2.6H5.7 M5.9,2.4H2.4v3.6h3.6V2.4L5.9,2.4z"/>
	</g>
	<g>
		<rect x="44.2" y="2.5" class="st2" width="3.3" height="3.3"/>
		<path class="st1" d="M47.4,2.6v3.1h-3.1V2.6H47.4 M47.6,2.4h-3.6v3.6h3.6V2.4L47.6,2.4z"/>
	</g>
	<g>
		<rect x="2.5" y="23.3" class="st2" width="3.3" height="3.3"/>
		<path class="st1" d="M5.7,23.5v3.1H2.6v-3.1H5.7 M5.9,23.2H2.4v3.6h3.6V23.2L5.9,23.2z"/>
	</g>
	<g>
		<rect x="44.2" y="23.3" class="st2" width="3.3" height="3.3"/>
		<path class="st1" d="M47.4,23.5v3.1h-3.1v-3.1H47.4 M47.6,23.2h-3.6v3.6h3.6V23.2L47.6,23.2z"/>
	</g>
	<g>
		<rect x="2.5" y="44.2" class="st2" width="3.3" height="3.3"/>
		<path class="st1" d="M5.7,44.4v3.1H2.6v-3.1H5.7 M5.9,44.1H2.4v3.6h3.6V44.1L5.9,44.1z"/>
	</g>
	<g>
		<rect x="23.3" y="2.5" class="st2" width="3.3" height="3.3"/>
		<path class="st1" d="M26.5,2.6v3.1h-3.1V2.6H26.5 M26.8,2.3h-3.6v3.6h3.6V2.3L26.8,2.3z"/>
	</g>
	<g>
		<rect x="23.4" y="44.2" class="st2" width="3.3" height="3.3"/>
		<path class="st1" d="M26.5,44.4v3.1h-3.1v-3.1H26.5 M26.8,44.1h-3.6v3.6h3.6V44.1L26.8,44.1z"/>
	</g>
	<g>
		<rect x="44.2" y="44.2" class="st2" width="3.3" height="3.3"/>
		<path class="st1" d="M47.4,44.4v3.1h-3.1v-3.1H47.4 M47.6,44.1h-3.6v3.6h3.6V44.1L47.6,44.1z"/>
	</g>
	<g>
		<rect x="23.8" y="23.8" class="st1" width="2.4" height="2.4"/>
	</g>
</g>
</svg>
